<svg xmlns="http://www.w3.org/2000/svg" xmlns:xlink="http://www.w3.org/1999/xlink" width="32.999" height="30" viewBox="0 0 32.999 30">
  <defs>
    <linearGradient id="linear-gradient" x1="0.5" x2="0.5" y2="1" gradientUnits="objectBoundingBox">
      <stop offset="0" stop-color="#43e2f7"/>
      <stop offset="1" stop-color="#13d1f4"/>
    </linearGradient>
  </defs>
  <g id="icon-jiaobenshezhi" transform="translate(78.198)">
    <path id="联合_94" data-name="联合 94" d="M-5915.7-410.364a1.089,1.089,0,0,1-1.09-1.09,1.09,1.09,0,0,1,1.09-1.09h13.671a7.945,7.945,0,0,0,2.16,2.083.052.052,0,0,1-.028.1Zm19.416-2.24a.515.515,0,0,1-.429-.579,1.024,1.024,0,0,0-.5-1.033,1.022,1.022,0,0,0-1.146.082.522.522,0,0,1-.371.107.5.5,0,0,1-.343-.184,4.515,4.515,0,0,1-.715-1.235.512.512,0,0,1,.287-.657,1.026,1.026,0,0,0,.646-.954,1.026,1.026,0,0,0-.647-.951.515.515,0,0,1-.289-.66,4.52,4.52,0,0,1,.712-1.233.51.51,0,0,1,.713-.079,1.043,1.043,0,0,0,.636.218,1.026,1.026,0,0,0,.773-.355,1.02,1.02,0,0,0,.239-.816.522.522,0,0,1,.092-.377.513.513,0,0,1,.333-.205,4.561,4.561,0,0,1,1.421,0,.515.515,0,0,1,.43.581,1.017,1.017,0,0,0,.5,1.03,1.022,1.022,0,0,0,1.147-.083.512.512,0,0,1,.713.079,4.51,4.51,0,0,1,.714,1.232.511.511,0,0,1-.285.658,1.022,1.022,0,0,0-.645.954v.006a1.021,1.021,0,0,0,.648.954.51.51,0,0,1,.285.657,4.418,4.418,0,0,1-.713,1.233.508.508,0,0,1-.342.187.515.515,0,0,1-.372-.108,1.025,1.025,0,0,0-1.147-.08,1.018,1.018,0,0,0-.5,1.031.516.516,0,0,1-.429.582,4.552,4.552,0,0,1-.71.056A4.494,4.494,0,0,1-5896.282-412.6Zm-.524-4.455a1.233,1.233,0,0,0,1.231,1.232,1.232,1.232,0,0,0,1.23-1.232,1.232,1.232,0,0,0-1.23-1.23A1.233,1.233,0,0,0-5896.807-417.06Zm-21.438,2.332a1.373,1.373,0,0,1-1.453-1.454v-20.364a1.374,1.374,0,0,1,1.453-1.454h29.092a1.373,1.373,0,0,1,1.453,1.454v17.883a.284.284,0,0,1-.024.137c-.036.058-.108.062-.136-.123a7.888,7.888,0,0,0-5.75-6.03l.364-.365h0a.793.793,0,0,0,.233-.565.793.793,0,0,0-.233-.565h0l-4.379-4.381a.8.8,0,0,0-1.129,0,.8.8,0,0,0,0,1.128l3.818,3.82-.676.676a7.876,7.876,0,0,0-7.841,7.875,7.813,7.813,0,0,0,.352,2.332Zm15.886-16.427-4.185,10.646a.8.8,0,0,0,.45,1.034.8.8,0,0,0,1.035-.45l4.187-10.646a.8.8,0,0,0-.452-1.034.792.792,0,0,0-.292-.056A.8.8,0,0,0-5902.358-431.155Zm-7.412.6-4.381,4.381h0a.79.79,0,0,0-.234.565.79.79,0,0,0,.234.565h0l4.381,4.381a.8.8,0,0,0,1.128,0,.8.8,0,0,0,0-1.129l-3.818-3.818,3.818-3.82a.8.8,0,0,0,0-1.128.8.8,0,0,0-.564-.234A.8.8,0,0,0-5909.771-430.559Zm-2.068-4.879a.793.793,0,0,0,.792.793.792.792,0,0,0,.792-.793.79.79,0,0,0-.792-.79A.791.791,0,0,0-5911.838-435.438Zm-2.836,0a.793.793,0,0,0,.792.793.793.793,0,0,0,.792-.793.791.791,0,0,0-.792-.79A.791.791,0,0,0-5914.674-435.438Zm-2.836,0a.793.793,0,0,0,.792.793.792.792,0,0,0,.791-.793.79.79,0,0,0-.791-.79A.791.791,0,0,0-5917.511-435.438Z" transform="translate(5842 439.182)" fill="url(#linear-gradient)"/>
    <path id="联合_94_-_轮廓" data-name="联合 94 - 轮廓" d="M-5899.9-409.864h-15.8a1.592,1.592,0,0,1-1.59-1.59,1.592,1.592,0,0,1,1.59-1.59h13.931l.149.212a7.416,7.416,0,0,0,2.021,1.95.549.549,0,0,1,.236.618A.55.55,0,0,1-5899.9-409.864Zm-15.8-2.181a.591.591,0,0,0-.59.59.591.591,0,0,0,.59.59h14.493a8.371,8.371,0,0,1-1.076-1.181Zm20.123,0a5.019,5.019,0,0,1-.786-.063,1.018,1.018,0,0,1-.846-1.142.527.527,0,0,0-.257-.53.525.525,0,0,0-.264-.071.523.523,0,0,0-.322.112l0,0a1.026,1.026,0,0,1-.625.214,1.013,1.013,0,0,1-.1-.005,1.008,1.008,0,0,1-.683-.369,5,5,0,0,1-.792-1.369,1.013,1.013,0,0,1,.57-1.3.524.524,0,0,0,.33-.489.528.528,0,0,0-.332-.486,1.02,1.02,0,0,1-.571-1.3,5.021,5.021,0,0,1,.791-1.371,1.009,1.009,0,0,1,.785-.374,1.014,1.014,0,0,1,.623.216.544.544,0,0,0,.329.113.525.525,0,0,0,.4-.183.524.524,0,0,0,.122-.415,1.017,1.017,0,0,1,.179-.74l0,0a1.019,1.019,0,0,1,.66-.4,5.087,5.087,0,0,1,1.577,0,1.021,1.021,0,0,1,.847,1.146.52.52,0,0,0,.256.525.53.53,0,0,0,.265.072.515.515,0,0,0,.323-.113,1.019,1.019,0,0,1,.627-.218,1.009,1.009,0,0,1,.784.372,5.006,5.006,0,0,1,.794,1.369,1.011,1.011,0,0,1-.567,1.3.524.524,0,0,0-.33.486v.009a.521.521,0,0,0,.331.488,1.012,1.012,0,0,1,.568,1.3,4.9,4.9,0,0,1-.79,1.366,1.013,1.013,0,0,1-.676.37h-.005a1.023,1.023,0,0,1-.731-.213.528.528,0,0,0-.324-.111.523.523,0,0,0-.262.071.516.516,0,0,0-.257.526,1.021,1.021,0,0,1-.845,1.149A5.064,5.064,0,0,1-5895.575-412.048Zm-2.152-2.806a1.529,1.529,0,0,1,.764.2,1.533,1.533,0,0,1,.747,1.538.015.015,0,0,0,.011.013,4.016,4.016,0,0,0,.63.051,4.06,4.06,0,0,0,.632-.05.015.015,0,0,0,.012-.018,1.51,1.51,0,0,1,.746-1.535,1.521,1.521,0,0,1,.763-.205,1.534,1.534,0,0,1,.942.325.017.017,0,0,0,.011,0h0l0,0,0,0a3.908,3.908,0,0,0,.632-1.094.012.012,0,0,0,0-.015,1.514,1.514,0,0,1-.962-1.418v-.006a1.531,1.531,0,0,1,.959-1.418.012.012,0,0,0,0-.013,4.008,4.008,0,0,0-.636-1.1.014.014,0,0,0-.017,0,1.524,1.524,0,0,1-.942.327,1.528,1.528,0,0,1-.763-.2,1.506,1.506,0,0,1-.748-1.536c0-.007-.007-.013-.014-.014a4.086,4.086,0,0,0-1.264,0l-.005,0a.021.021,0,0,0,0,.013,1.514,1.514,0,0,1-.357,1.217,1.525,1.525,0,0,1-1.15.526,1.55,1.55,0,0,1-.941-.322l0,0c-.011-.008-.013,0-.015,0a4.024,4.024,0,0,0-.633,1.1.015.015,0,0,0,.008.017,1.515,1.515,0,0,1,.961,1.415,1.52,1.52,0,0,1-.96,1.418.013.013,0,0,0-.006.013,4.018,4.018,0,0,0,.636,1.1l0,0h0a.023.023,0,0,0,.014,0A1.526,1.526,0,0,1-5897.727-414.854Zm-4.695.627h-15.823a1.869,1.869,0,0,1-1.953-1.954v-20.364a1.869,1.869,0,0,1,1.953-1.954h29.092a1.869,1.869,0,0,1,1.953,1.954v17.87a.737.737,0,0,1-.1.415.557.557,0,0,1-.474.27.6.6,0,0,1-.578-.569,7.415,7.415,0,0,0-5.382-5.636l-.845-.218,1-1.006a.293.293,0,0,0,.069-.191.293.293,0,0,0-.072-.2l-.018-.017-4.379-4.381a.3.3,0,0,0-.212-.087.3.3,0,0,0-.21.088.3.3,0,0,0-.087.211.292.292,0,0,0,.086.208l4.173,4.174-1.175,1.175h-.206a7.391,7.391,0,0,0-7.344,7.375,7.329,7.329,0,0,0,.329,2.184Zm-15.823-23.273a.876.876,0,0,0-.953.954v20.364a.876.876,0,0,0,.953.954h14.492a8.372,8.372,0,0,1-.2-1.832,8.322,8.322,0,0,1,2.441-5.91,8.321,8.321,0,0,1,5.689-2.462l.18-.18-3.465-3.466a1.285,1.285,0,0,1-.38-.915,1.29,1.29,0,0,1,.38-.919,1.289,1.289,0,0,1,.917-.38,1.292,1.292,0,0,1,.918.38l4.383,4.383a1.289,1.289,0,0,1,.38.918,1.293,1.293,0,0,1-.2.689,8.4,8.4,0,0,1,3.191,2.088,8.4,8.4,0,0,1,1.315,1.806v-15.517a.876.876,0,0,0-.953-.954Zm22.669,22.172a1.734,1.734,0,0,1-1.731-1.732,1.733,1.733,0,0,1,1.731-1.73,1.732,1.732,0,0,1,1.73,1.73A1.733,1.733,0,0,1-5895.575-415.329Zm0-2.462a.732.732,0,0,0-.731.73.732.732,0,0,0,.731.732.732.732,0,0,0,.73-.732A.731.731,0,0,0-5895.575-417.79Zm-10.225-1.128h0a1.294,1.294,0,0,1-.476-.091,1.286,1.286,0,0,1-.715-.689,1.292,1.292,0,0,1-.018-.992l4.185-10.647a1.3,1.3,0,0,1,1.208-.823h0a1.285,1.285,0,0,1,.476.091,1.286,1.286,0,0,1,.714.688,1.29,1.29,0,0,1,.019.993l-4.187,10.647A1.292,1.292,0,0,1-5905.8-418.918Zm4.185-12.242a.3.3,0,0,0-.279.191l-4.184,10.644a.3.3,0,0,0,0,.228.292.292,0,0,0,.163.157.3.3,0,0,0,.111.022.3.3,0,0,0,.277-.189l4.187-10.646a.294.294,0,0,0,0-.228.294.294,0,0,0-.164-.158A.3.3,0,0,0-5901.615-431.161Zm-7.591,11.23a1.289,1.289,0,0,1-.917-.38l-4.381-4.381a1.286,1.286,0,0,1-.382-.919,1.286,1.286,0,0,1,.382-.92l.023-.023,4.358-4.358a1.289,1.289,0,0,1,.917-.38,1.29,1.29,0,0,1,.917.38,1.292,1.292,0,0,1,.38.918,1.286,1.286,0,0,1-.381.917l-3.464,3.465,3.465,3.465a1.3,1.3,0,0,1,0,1.836A1.29,1.29,0,0,1-5909.207-419.93Zm-4.6-5.48.012.012,4.381,4.381a.3.3,0,0,0,.21.088.3.3,0,0,0,.21-.088.3.3,0,0,0,0-.422l-4.171-4.171,4.172-4.173a.293.293,0,0,0,.087-.21.3.3,0,0,0-.088-.211.3.3,0,0,0-.21-.087.3.3,0,0,0-.21.088l-4.4,4.4a.291.291,0,0,0-.076.2A.289.289,0,0,0-5913.81-425.411Zm2.763-8.734a1.294,1.294,0,0,1-1.292-1.293,1.293,1.293,0,0,1,1.292-1.29,1.293,1.293,0,0,1,1.292,1.29A1.294,1.294,0,0,1-5911.046-434.144Zm0-1.584a.291.291,0,0,0-.292.29.293.293,0,0,0,.292.293.293.293,0,0,0,.292-.293A.291.291,0,0,0-5911.046-435.728Zm-2.836,1.584a1.294,1.294,0,0,1-1.292-1.293,1.293,1.293,0,0,1,1.292-1.29,1.293,1.293,0,0,1,1.292,1.29A1.294,1.294,0,0,1-5913.883-434.144Zm0-1.584a.291.291,0,0,0-.292.29.293.293,0,0,0,.292.293.293.293,0,0,0,.292-.293A.291.291,0,0,0-5913.883-435.728Zm-2.836,1.584a1.294,1.294,0,0,1-1.292-1.293,1.293,1.293,0,0,1,1.292-1.29,1.292,1.292,0,0,1,1.291,1.29A1.294,1.294,0,0,1-5916.719-434.144Zm0-1.584a.291.291,0,0,0-.292.29.293.293,0,0,0,.292.293.292.292,0,0,0,.291-.293A.291.291,0,0,0-5916.719-435.728Z" transform="translate(5842 439.182)" fill="rgba(0,0,0,0)"/>
    <rect id="矩形_271" data-name="矩形 271" width="32" height="30" transform="translate(-77.698)" fill="none"/>
  </g>
</svg>
